HIERARCHY
ROOT Hips
{
 OFFSET 0.000000 0.000000 0.000000
 CHANNELS 6 Xposition Yposition Zposition Yrotation Xrotation Zrotation
 JOINT Chest
 {
  OFFSET 0.000000 9.585900 0.002600
  CHANNELS 3 Yrotation Xrotation Zrotation
  JOINT Chest2
  {
   OFFSET 0.000000 9.601200 -0.005300
   CHANNELS 3 Yrotation Xrotation Zrotation
   JOINT Chest3
   {
    OFFSET 0.000000 9.561800 0.000000
    CHANNELS 3 Yrotation Xrotation Zrotation
    JOINT Chest4
    {
     OFFSET 0.000000 9.552100 0.000000
     CHANNELS 3 Yrotation Xrotation Zrotation
     JOINT Neck
     {
      OFFSET 0.000000 14.453000 0.000000
      CHANNELS 3 Yrotation Xrotation Zrotation
      JOINT Head
      {
       OFFSET 0.000000 8.936500 -0.011300
       CHANNELS 3 Yrotation Xrotation Zrotation
       End Site
       {
        OFFSET 0.000000 17.073600 -0.006000
       }
      }
     }
     JOINT RightCollar
     {
      OFFSET -2.921100 9.558500 0.000000
      CHANNELS 3 Yrotation Xrotation Zrotation
      JOINT RightShoulder
      {
       OFFSET -13.519700 0.000000 0.000000
       CHANNELS 3 Yrotation Xrotation Zrotation
       JOINT RightElbow
       {
        OFFSET 0.000000 -29.696600 0.000000
        CHANNELS 3 Yrotation Xrotation Zrotation
        JOINT RightWrist
        {
         OFFSET 0.000000 -24.004700 0.000000
         CHANNELS 3 Yrotation Xrotation Zrotation
         End Site
         {
          OFFSET 0.000000 -17.728500 0.000000
         }
        }
       }
      }
     }
     JOINT LeftCollar
     {
      OFFSET 2.921100 9.558500 0.000000
      CHANNELS 3 Yrotation Xrotation Zrotation
      JOINT LeftShoulder
      {
       OFFSET 13.519700 0.000000 0.000000
       CHANNELS 3 Yrotation Xrotation Zrotation
       JOINT LeftElbow
       {
        OFFSET 0.000000 -29.696600 0.000000
        CHANNELS 3 Yrotation Xrotation Zrotation
        JOINT LeftWrist
        {
         OFFSET 0.000000 -24.004700 0.000000
         CHANNELS 3 Yrotation Xrotation Zrotation
         End Site
         {
          OFFSET 0.000000 -17.728500 0.000000
         }
        }
       }
      }
     }
    }
   }
  }
 }
 JOINT RightHip
 {
  OFFSET -7.771700 -0.012900 -0.001300
  CHANNELS 3 Yrotation Xrotation Zrotation
  JOINT RightKnee
  {
   OFFSET 0.000000 -40.869800 0.001200
   CHANNELS 3 Yrotation Xrotation Zrotation
   JOINT RightAnkle
   {
    OFFSET 0.000000 -39.717900 0.002100
    CHANNELS 3 Yrotation Xrotation Zrotation
    JOINT RightToe
    {
     OFFSET 0.000000 -4.965400 11.033500
     CHANNELS 3 Yrotation Xrotation Zrotation
     End Site
     {
      OFFSET 0.000000 -1.423100 5.872300
     }
    }
   }
  }
 }
 JOINT LeftHip
 {
  OFFSET 7.771700 -0.012900 -0.001300
  CHANNELS 3 Yrotation Xrotation Zrotation
  JOINT LeftKnee
  {
   OFFSET 0.000000 -40.869800 0.001200
   CHANNELS 3 Yrotation Xrotation Zrotation
   JOINT LeftAnkle
   {
    OFFSET 0.000000 -39.717900 0.002100
    CHANNELS 3 Yrotation Xrotation Zrotation
    JOINT LeftToe
    {
     OFFSET 0.000000 -4.965400 11.033500
     CHANNELS 3 Yrotation Xrotation Zrotation
     End Site
     {
      OFFSET 0.000000 -1.423100 5.872300
     }
    }
   }
  }
 }
}
MOTION
Frames: 9
Frame Time: 0.008333
-16.795141 55.232212 -31.993810 -179.475848 -16.688943 -1.513773 0.309390 16.044769 1.046573 0.019537 1.578728 0.115172 0.045854 2.648228 0.187243 0.307962 14.234562 1.072813 0.667780 14.057012 -7.526816 2.494963 -10.757920 -8.362732 -1.138260 -0.469528 2.236023 3.956186 -5.605964 -8.602197 -83.611215 -65.257404 114.495112 -13.222516 -4.399112 0.641782 -7.098241 -1.047284 2.367801 4.835610 -10.574766 6.545290 75.957867 -63.105863 -112.383441 3.741747 -11.459004 5.195074 0.289394 -58.299916 11.995432 -110.128678 88.444588 -114.733687 -10.688033 -22.496182 13.060274 0.012692 -0.026728 0.010534 9.913803 -54.955009 -5.987842 113.757007 77.317368 111.500670 -7.157191 -23.572482 0.818757 0.062622 0.229500 0.029013
-16.796783 55.232414 -31.995074 -179.473416 -16.689148 -1.511422 0.319666 16.048580 1.041024 0.020656 1.579171 0.114569 0.036171 2.645196 0.192334 0.320812 14.238766 1.064402 0.657009 14.055850 -7.526667 2.483202 -10.759350 -8.359824 -1.140265 -0.477502 2.228062 3.944928 -5.606351 -8.597165 -83.561872 -65.278023 114.486299 -13.238799 -4.416568 0.630590 -7.121549 -1.067899 2.400143 4.841223 -10.594272 6.561788 75.905093 -63.071101 -112.327894 3.730384 -11.461059 5.187684 0.296251 -58.299036 11.983000 -110.072960 88.437718 -114.679172 -10.662868 -22.503257 13.062811 -0.054146 -0.030040 0.001039 9.923952 -54.952206 -5.996374 113.757369 77.319471 111.501831 -7.160553 -23.574559 0.822634 0.063251 0.229099 0.029471
-16.797635 55.232682 -31.996517 -179.471470 -16.690044 -1.513961 0.334792 16.053915 1.035609 0.023344 1.580779 0.112634 0.030396 2.641902 0.198724 0.319961 14.239806 1.065539 0.649191 14.055107 -7.529567 2.472027 -10.761508 -8.356070 -1.141105 -0.482650 2.226767 3.945422 -5.615747 -8.617021 -83.535706 -65.266293 114.472557 -13.233311 -4.411719 0.632202 -7.129426 -1.075409 2.414698 4.837156 -10.604125 6.569054 75.902846 -63.079550 -112.340676 3.745067 -11.462262 5.205167 0.309786 -58.297913 11.968163 -110.104518 88.438199 -114.710336 -10.616163 -22.511502 13.061373 -0.021557 -0.030969 -0.000518 9.925964 -54.949165 -5.997554 113.749497 77.319332 111.497649 -7.162893 -23.578966 0.823509 0.067123 0.231517 0.028921
-16.798683 55.232863 -31.997557 -179.469889 -16.688153 -1.515607 0.344197 16.055756 1.031683 0.022348 1.580025 0.113667 0.028851 2.643670 0.199285 0.326463 14.239450 1.061077 0.638678 14.052912 -7.526978 2.459855 -10.764167 -8.350391 -1.144264 -0.488113 2.230527 3.941522 -5.622665 -8.624912 -83.519233 -65.256305 114.460815 -13.224019 -4.411832 0.636036 -7.138348 -1.082738 2.434183 4.833263 -10.604345 6.568658 75.925369 -63.110250 -112.394004 3.763647 -11.466107 5.225811 0.313690 -58.299024 11.959939 -110.144762 88.441461 -114.753872 -10.568083 -22.519275 13.056100 -0.053907 -0.035936 -0.004891 9.922212 -54.950384 -5.995569 113.741560 77.317690 111.489318 -7.158867 -23.577651 0.817899 0.064821 0.230286 0.031505
-16.800202 55.233150 -31.998791 -179.464374 -16.687269 -1.516076 0.348601 16.057665 1.026596 0.017649 1.578683 0.116709 0.035073 2.644797 0.194531 0.334803 14.242142 1.055767 0.625390 14.049565 -7.519315 2.446782 -10.767052 -8.343299 -1.149025 -0.502212 2.228634 3.933372 -5.620097 -8.620215 -83.508268 -65.247649 114.452062 -13.212375 -4.410723 0.644866 -7.146675 -1.117884 2.470539 4.818796 -10.594241 6.567804 75.898010 -63.103418 -112.366846 3.752445 -11.465830 5.180491 0.317996 -58.299102 11.951653 -110.133259 88.436187 -114.743452 -10.544003 -22.524271 13.055847 0.012588 -0.033256 -0.000234 9.917519 -54.949942 -5.995950 113.735274 77.316106 111.479536 -7.159349 -23.578136 0.820206 0.062731 0.231281 0.030079
-16.801562 55.233471 -31.999899 -179.462772 -16.685745 -1.516972 0.357790 16.059246 1.022574 0.011964 1.577256 0.120657 0.049029 2.650069 0.183680 0.332052 14.238258 1.063355 0.617197 14.048977 -7.518769 2.435319 -10.770492 -8.335825 -1.130339 -0.519770 2.203714 3.901736 -5.610612 -8.589623 -83.494439 -65.272552 114.472412 -13.217696 -4.425255 0.630046 -7.155733 -1.139234 2.487398 4.803613 -10.597250 6.582416 75.871107 -63.100382 -112.347446 3.753578 -11.468896 5.176537 0.319994 -58.300443 11.951769 -110.064405 88.431649 -114.670340 -10.552843 -22.525118 13.054792 0.049808 -0.029979 0.006552 9.923492 -54.948597 -5.997317 113.730499 77.319235 111.476255 -7.165079 -23.580613 0.822303 0.065536 0.234145 0.031791
-16.803429 55.233863 -32.001055 -179.456271 -16.684590 -1.517012 0.356317 16.059945 1.017960 0.019688 1.578192 0.118100 0.049631 2.653442 0.180442 0.326065 14.233139 1.072033 0.615585 14.051734 -7.524842 2.427746 -10.775041 -8.328551 -1.128630 -0.524198 2.200073 3.907586 -5.614187 -8.605184 -83.494282 -65.269370 114.473915 -13.217541 -4.423276 0.632437 -7.159958 -1.160750 2.495429 4.789128 -10.607439 6.596851 75.833997 -63.095987 -112.320884 3.756725 -11.465730 5.176999 0.321465 -58.300786 11.946600 -110.016482 88.429275 -114.617913 -10.562558 -22.528393 13.053747 0.010520 -0.031981 0.006555 9.924991 -54.948718 -6.003437 113.728574 77.320740 111.474193 -7.164517 -23.577636 0.822633 0.067789 0.232418 0.032961
-16.803134 55.234641 -32.002977 -179.454186 -16.688670 -1.529712 0.362118 16.066228 1.026614 0.024033 1.581050 0.112862 0.050932 2.654436 0.184407 0.328242 14.235341 1.066297 0.612180 14.046469 -7.515484 2.423757 -10.778825 -8.322962 -1.132309 -0.535652 2.207688 3.912104 -5.617633 -8.614952 -83.495377 -65.267969 114.473934 -13.218766 -4.418053 0.638189 -7.170816 -1.189389 2.516503 4.763737 -10.635215 6.623736 75.762077 -63.071197 -112.239563 3.758137 -11.462584 5.164870 0.298949 -58.292735 11.974517 -109.650042 88.416235 -114.249136 -10.561335 -22.530454 13.050036 0.010333 -0.029874 0.009668 9.913023 -54.947743 -5.986748 113.759710 77.322675 111.509867 -7.154118 -23.580312 0.818923 0.066626 0.231069 0.033032
-16.804841 55.235303 -32.004316 -179.455374 -16.689805 -1.530602 0.380129 16.074883 1.022500 0.025762 1.582574 0.112342 0.044930 2.650753 0.188735 0.351425 14.247294 1.057689 0.588167 14.029116 -7.492959 2.418615 -10.777907 -8.322383 -1.155253 -0.560120 2.216074 3.919816 -5.617684 -8.618777 -83.500495 -65.268146 114.472218 -13.226836 -4.418539 0.639550 -7.203647 -1.221375 2.547095 4.744547 -10.649696 6.639587 75.721095 -63.062607 -112.202470 3.759840 -11.459607 5.157235 0.301102 -58.290418 11.973730 -109.366302 88.398607 -113.961434 -10.542587 -22.533716 13.043138 0.001574 -0.028618 0.012930 9.916283 -54.944392 -5.986957 113.761304 77.325856 111.514555 -7.154922 -23.582922 0.817325 0.070956 0.232212 0.035034
